HIERARCHY
ROOT Hips
{
	OFFSET -3.958830 18.904000 13.208200
	CHANNELS 6 Xposition Yposition Zposition Zrotation Yrotation Xrotation 
	JOINT LHipJoint
	{
		OFFSET 0.000000 0.000000 0.000000
		CHANNELS 3 Zrotation Yrotation Xrotation
		JOINT LeftUpLeg
		{
			OFFSET 1.800000 -1.400000 0.085000
			CHANNELS 3 Zrotation Yrotation Xrotation
			JOINT LeftLeg
			{
				OFFSET 2.215000 -6.000000 0.000000
				CHANNELS 3 Zrotation Yrotation Xrotation
				JOINT LeftFoot
				{
					OFFSET 2.500000 -6.900000 0.000000
					CHANNELS 3 Zrotation Yrotation Xrotation
					JOINT LeftToeBase
					{
						OFFSET 0.200000 -0.500000 1.950000
						CHANNELS 3 Zrotation Yrotation Xrotation
						End Site
						{
							OFFSET 0.000000 0.000000 0.000000
						}
					}
				}
			}
		}
	}
	JOINT RHipJoint
	{
		OFFSET 0.000000 0.000000 0.000000
		CHANNELS 3 Zrotation Yrotation Xrotation
		JOINT RightUpLeg
		{
			OFFSET -1.800000 -1.400000 0.085000
			CHANNELS 3 Zrotation Yrotation Xrotation
			JOINT RightLeg
			{
				OFFSET -2.215000 -6.000000 0.000000
				CHANNELS 3 Zrotation Yrotation Xrotation
				JOINT RightFoot
				{
					OFFSET -2.500000 -6.900000 0.000000
					CHANNELS 3 Zrotation Yrotation Xrotation
					JOINT RightToeBase
					{
						OFFSET -0.200000 -0.500000 1.950000
						CHANNELS 3 Zrotation Yrotation Xrotation
						End Site
						{
							OFFSET 0.000000 0.000000 0.000000
						}
					}
				}
			}
		}
	}
	JOINT LowerBack
	{
		OFFSET 0.000000 0.000000 0.000000
		CHANNELS 3 Zrotation Yrotation Xrotation
		JOINT Spine
		{
			OFFSET -0.087000 1.940000 -0.288900
			CHANNELS 3 Zrotation Yrotation Xrotation
			JOINT Spine1
			{
				OFFSET 0.000000 1.950000 0.060000
				CHANNELS 3 Zrotation Yrotation Xrotation
				JOINT Neck
				{
					OFFSET 0.000000 0.000000 0.000000
					CHANNELS 3 Zrotation Yrotation Xrotation
					JOINT Neck1
					{
						OFFSET 0.000000 1.600000 0.340000
						CHANNELS 3 Zrotation Yrotation Xrotation
						JOINT Head
						{
							OFFSET 0.000000 1.667000 -0.240000
							CHANNELS 3 Zrotation Yrotation Xrotation
							End Site
							{
								OFFSET 0.000000 0.000000 0.000000
							}
						}
					}
				}
				JOINT LeftShoulder
				{
					OFFSET 0.000000 0.000000 0.000000
					CHANNELS 3 Zrotation Yrotation Xrotation
					JOINT LeftArm
					{
						OFFSET 2.700000 1.550000 -0.730000
						CHANNELS 3 Zrotation Yrotation Xrotation
						JOINT LeftForeArm
						{
							OFFSET 5.450000 0.000000 0.000000
							CHANNELS 3 Zrotation Yrotation Xrotation
							JOINT LeftHand
							{
								OFFSET 3.450000 0.000000 0.000000
								CHANNELS 3 Zrotation Yrotation Xrotation
								JOINT LeftHandIndex1
								{
									OFFSET 0.750000 0.000000 0.000000
									CHANNELS 3 Zrotation Yrotation Xrotation
									End Site
									{
										OFFSET 0.000000 0.000000 0.000000
									}
								}
							}
						}
					}
				}
				JOINT RightShoulder
				{
					OFFSET 0.000000 0.000000 0.000000
					CHANNELS 3 Zrotation Yrotation Xrotation
					JOINT RightArm
					{
						OFFSET -2.700000 1.550000 -0.730000
						CHANNELS 3 Zrotation Yrotation Xrotation
						JOINT RightForeArm
						{
							OFFSET -5.450000 0.000000 0.000000
							CHANNELS 3 Zrotation Yrotation Xrotation
							JOINT RightHand
							{
								OFFSET -3.450000 0.000000 0.000000
								CHANNELS 3 Zrotation Yrotation Xrotation
								JOINT RightHandIndex1
								{
									OFFSET -0.750000 0.000000 0.000000
									CHANNELS 3 Zrotation Yrotation Xrotation
									End Site
									{
										OFFSET 0.000000 0.000000 0.000000
									}
								}
							}
						}
					}
				}
			}
		}
	}
}
MOTION
Frames: 4
Frame Time: 0.016667
-1.645050 16.845610 -2.821720 -4.073893 3.086132 -0.323470 -15.044036 11.609400 4.095850 23.989212 -3.424892 -35.198586 -5.523907 9.342629 32.512523 -0.736643 6.995628 1.846528 0.533160 0.428130 0.196890 18.645817 -9.503938 3.693801 -17.075009 6.666356 -32.574056 20.947432 -18.329445 43.638434 -1.413173 -8.418823 1.291147 0.338970 0.339140 0.172160 -4.345406 -1.292868 -8.881750 13.656288 -4.713260 42.259518 -4.788283 1.887731 9.611694 -3.882276 -7.486054 -10.222351 -21.470268 2.785712 43.037858 10.144520 -2.473410 -28.700970 -8.934752 -27.182219 -1.187344 -19.775759 -38.129880 -1.065087 -160.557240 -69.586022 141.759758 -3.471759 2.715852 0.869770 -0.085530 0.196720 0.185140 15.885333 29.833742 10.671083 39.236133 15.716528 -11.085839 87.749929 55.520550 35.614902 2.113539 -1.403264 -0.295900 0.708380 0.207670 -0.120640 
-1.687000 16.811190 -2.916740 -3.815270 2.549360 0.790417 -15.075570 11.356713 4.238391 24.606612 -3.364827 -36.417317 -6.635799 9.656812 32.025701 -0.734299 7.079831 1.803436 0.561570 0.456040 0.236460 18.671537 -9.203138 3.920629 -18.468945 7.476660 -34.587802 23.355418 -18.785419 42.685394 -1.457535 -8.487476 1.260635 0.348120 0.305430 0.178580 -4.334237 -1.273827 -9.026390 14.386462 -4.991615 44.607360 -4.869743 2.270246 9.197769 -3.575774 -7.773163 -10.369170 -22.178295 3.081196 43.225830 9.263760 -2.335110 -29.758230 -9.261084 -27.754074 -1.576908 -18.466015 -37.586498 -2.452530 -157.490845 -69.346512 137.018487 -3.463298 2.689759 0.889110 -0.104410 0.225430 0.177870 15.609894 30.797480 10.895787 37.556422 15.735726 -11.929132 88.852586 57.581993 37.579751 2.134712 -1.362515 -0.282980 0.707290 0.193770 -0.130510 
-1.723100 16.773730 -2.983570 -3.343752 2.095200 1.624429 -15.107357 11.120071 4.370102 25.240562 -3.270263 -37.432783 -7.774334 10.113721 32.032943 -0.698443 7.237595 1.717992 0.601350 0.510440 0.281850 18.697939 -8.920676 4.120820 -20.152968 8.078538 -36.425482 25.376818 -19.353440 42.287001 -1.524295 -8.638822 1.191999 0.359080 0.249770 0.202200 -4.325631 -1.266811 -9.159088 15.199816 -5.366439 46.524056 -5.191789 2.472391 8.369401 -3.103116 -8.056174 -10.134411 -22.848761 3.411439 43.389756 7.917120 -2.179030 -31.095780 -10.280957 -27.403053 -2.280458 -17.856206 -37.393526 -2.968937 -148.844350 -68.552914 124.481140 -3.485300 2.655466 0.892710 -0.127820 0.270880 0.163430 15.629711 30.805746 10.751419 36.515139 15.820516 -12.253331 89.010787 59.034904 38.815536 2.168386 -1.339691 -0.238020 0.678550 0.172700 -0.130550 
-1.756140 16.735030 -3.019890 -2.706283 1.759405 1.809634 -15.165998 10.972727 4.527094 26.197732 -3.382989 -37.778029 -9.650308 10.796905 32.065278 -0.683254 7.556132 1.581326 0.612580 0.503370 0.326210 18.684279 -8.653752 4.231591 -21.507063 8.198129 -37.587163 26.690845 -20.176832 42.646434 -1.607352 -8.882551 1.097128 0.353120 0.210350 0.233880 -4.221523 -1.473550 -9.279978 15.221019 -5.583481 48.072569 -4.845980 2.453367 7.919316 -2.626414 -7.995727 -10.128276 -22.846979 3.860056 44.008482 6.307190 -1.521680 -32.237820 -11.207427 -27.427596 -2.449193 -17.004816 -36.534785 -3.949978 -145.019153 -68.904243 119.611388 -3.509809 2.605989 0.934870 -0.140700 0.310020 0.141390 15.651092 30.958453 10.647737 35.823979 15.790741 -12.695713 84.843705 59.656514 36.681767 2.125302 -1.326662 -0.233800 0.662310 0.178200 -0.158850 
